<?xml version="1.0" encoding="utf-8"?>
<!-- Generator: Adobe Illustrator 23.1.0, SVG Export Plug-In . SVG Version: 6.00 Build 0)  -->
<svg version="1.1" id="Capa_1" xmlns="http://www.w3.org/2000/svg" xmlns:xlink="http://www.w3.org/1999/xlink" x="0px" y="0px"
	 viewBox="0 0 612 315.68" style="enable-background:new 0 0 612 315.68;" xml:space="preserve">
<style type="text/css">
	.st0{fill:#21234C;}
	.st1{fill:#B62439;}
</style>
<path class="st0" d="M49.82,59.26l4.43,13.14c0.02,0.05,0.07,0.09,0.12,0.09l13.86,0.15c0.13,0,0.18,0.16,0.08,0.24l-11.13,8.27
	c-0.04,0.03-0.06,0.09-0.05,0.14l4.14,13.23c0.04,0.12-0.1,0.22-0.2,0.15l-11.3-8.03c-0.05-0.03-0.11-0.03-0.15,0l-11.3,8.03
	c-0.1,0.07-0.24-0.03-0.2-0.15l4.14-13.23c0.02-0.05,0-0.11-0.05-0.14l-11.13-8.27c-0.1-0.07-0.05-0.23,0.08-0.24l13.86-0.15
	c0.06,0,0.1-0.04,0.12-0.09l4.43-13.14C49.61,59.14,49.78,59.14,49.82,59.26z"/>
<path class="st1" d="M91.16,109.53l4.43,13.14c0.02,0.05,0.07,0.09,0.12,0.09l13.86,0.15c0.13,0,0.18,0.16,0.08,0.24l-11.13,8.27
	c-0.04,0.03-0.06,0.09-0.05,0.14l4.14,13.23c0.04,0.12-0.1,0.22-0.2,0.15l-11.3-8.03c-0.05-0.03-0.11-0.03-0.15,0l-11.3,8.03
	c-0.1,0.07-0.24-0.03-0.2-0.15l4.14-13.23c0.02-0.05,0-0.11-0.05-0.14l-11.13-8.27c-0.1-0.07-0.05-0.23,0.08-0.24l13.86-0.15
	c0.06,0,0.1-0.04,0.12-0.09l4.43-13.14C90.95,109.41,91.12,109.41,91.16,109.53z"/>
<path class="st0" d="M47.82,127.29l4.43,13.14c0.02,0.05,0.07,0.09,0.12,0.09l13.86,0.15c0.13,0,0.18,0.16,0.08,0.24l-11.13,8.27
	c-0.04,0.03-0.06,0.09-0.05,0.14l4.14,13.23c0.04,0.12-0.1,0.22-0.2,0.15l-11.3-8.03c-0.05-0.03-0.11-0.03-0.15,0l-11.3,8.03
	c-0.1,0.07-0.24-0.03-0.2-0.15l4.14-13.23c0.02-0.05,0-0.11-0.05-0.14l-11.13-8.27c-0.1-0.07-0.05-0.23,0.08-0.24l13.86-0.15
	c0.06,0,0.1-0.04,0.12-0.09l4.43-13.14C47.61,127.17,47.78,127.17,47.82,127.29z"/>
<path class="st1" d="M89.16,177.56l4.43,13.14c0.02,0.05,0.07,0.09,0.12,0.09l13.86,0.15c0.13,0,0.18,0.16,0.08,0.24l-11.13,8.27
	c-0.04,0.03-0.06,0.09-0.05,0.14l4.14,13.23c0.04,0.12-0.1,0.22-0.2,0.15l-11.3-8.03c-0.05-0.03-0.11-0.03-0.15,0l-11.3,8.03
	c-0.1,0.07-0.24-0.03-0.2-0.15l4.14-13.23c0.02-0.05,0-0.11-0.05-0.14l-11.13-8.27c-0.1-0.07-0.05-0.23,0.08-0.24l13.86-0.15
	c0.06,0,0.1-0.04,0.12-0.09l4.43-13.14C88.95,177.45,89.12,177.45,89.16,177.56z"/>
<path class="st0" d="M45.81,190.87l4.43,13.14c0.02,0.05,0.07,0.09,0.12,0.09l13.86,0.15c0.13,0,0.18,0.16,0.08,0.24l-11.13,8.27
	c-0.04,0.03-0.06,0.09-0.05,0.14l4.14,13.23c0.04,0.12-0.1,0.22-0.2,0.15l-11.3-8.03c-0.05-0.03-0.11-0.03-0.15,0l-11.3,8.03
	c-0.1,0.07-0.24-0.03-0.2-0.15l4.14-13.23c0.02-0.05,0-0.11-0.05-0.14l-11.13-8.27c-0.1-0.07-0.05-0.23,0.08-0.24l13.86-0.15
	c0.06,0,0.1-0.04,0.12-0.09l4.43-13.14C45.6,190.75,45.77,190.75,45.81,190.87z"/>
<path class="st1" d="M87.15,241.14l4.43,13.14c0.02,0.05,0.07,0.09,0.12,0.09l13.86,0.15c0.13,0,0.18,0.16,0.08,0.24l-11.13,8.27
	c-0.04,0.03-0.06,0.09-0.05,0.14l4.14,13.23c0.04,0.12-0.1,0.22-0.2,0.15l-11.3-8.03c-0.05-0.03-0.11-0.03-0.15,0l-11.3,8.03
	c-0.1,0.07-0.24-0.03-0.2-0.15l4.14-13.23c0.02-0.05,0-0.11-0.05-0.14l-11.13-8.27c-0.1-0.07-0.05-0.23,0.08-0.24l13.86-0.15
	c0.06,0,0.1-0.04,0.12-0.09l4.43-13.14C86.94,241.02,87.11,241.02,87.15,241.14z"/>
<path class="st1" d="M91.16,36.26l4.43,13.14c0.02,0.05,0.07,0.09,0.12,0.09l13.86,0.15c0.13,0,0.18,0.16,0.08,0.24l-11.13,8.27
	c-0.04,0.03-0.06,0.09-0.05,0.14l4.14,13.23c0.04,0.12-0.1,0.22-0.2,0.15l-11.3-8.03c-0.05-0.03-0.11-0.03-0.15,0l-11.3,8.03
	c-0.1,0.07-0.24-0.03-0.2-0.15l4.14-13.23c0.02-0.05,0-0.11-0.05-0.14l-11.13-8.27c-0.1-0.07-0.05-0.23,0.08-0.24l13.86-0.15
	c0.06,0,0.1-0.04,0.12-0.09l4.43-13.14C90.95,36.14,91.12,36.14,91.16,36.26z"/>
<path class="st0" d="M141.74,59.26l4.43,13.14c0.02,0.05,0.07,0.09,0.12,0.09l13.86,0.15c0.13,0,0.18,0.16,0.08,0.24l-11.13,8.27
	c-0.04,0.03-0.06,0.09-0.05,0.14l4.14,13.23c0.04,0.12-0.1,0.22-0.2,0.15l-11.3-8.03c-0.05-0.03-0.11-0.03-0.15,0l-11.3,8.03
	c-0.1,0.07-0.24-0.03-0.2-0.15l4.14-13.23c0.02-0.05,0-0.11-0.05-0.14L123,72.87c-0.1-0.07-0.05-0.23,0.08-0.24l13.86-0.15
	c0.06,0,0.1-0.04,0.12-0.09l4.43-13.14C141.53,59.14,141.7,59.14,141.74,59.26z"/>
<path class="st1" d="M183.08,109.53l4.43,13.14c0.02,0.05,0.07,0.09,0.12,0.09l13.86,0.15c0.13,0,0.18,0.16,0.08,0.24l-11.13,8.27
	c-0.04,0.03-0.06,0.09-0.05,0.14l4.14,13.23c0.04,0.12-0.1,0.22-0.2,0.15l-11.3-8.03c-0.05-0.03-0.11-0.03-0.15,0l-11.3,8.03
	c-0.1,0.07-0.24-0.03-0.2-0.15l4.14-13.23c0.02-0.05,0-0.11-0.05-0.14l-11.13-8.27c-0.1-0.07-0.05-0.23,0.08-0.24l13.86-0.15
	c0.06,0,0.1-0.04,0.12-0.09l4.43-13.14C182.87,109.41,183.04,109.41,183.08,109.53z"/>
<path class="st0" d="M139.73,127.29l4.43,13.14c0.02,0.05,0.07,0.09,0.12,0.09l13.86,0.15c0.13,0,0.18,0.16,0.08,0.24l-11.13,8.27
	c-0.04,0.03-0.06,0.09-0.05,0.14l4.14,13.23c0.04,0.12-0.1,0.22-0.2,0.15l-11.3-8.03c-0.05-0.03-0.11-0.03-0.15,0l-11.3,8.03
	c-0.1,0.07-0.24-0.03-0.2-0.15l4.14-13.23c0.02-0.05,0-0.11-0.05-0.14l-11.13-8.27c-0.1-0.07-0.05-0.23,0.08-0.24l13.86-0.15
	c0.06,0,0.1-0.04,0.12-0.09l4.43-13.14C139.52,127.17,139.69,127.17,139.73,127.29z"/>
<path class="st1" d="M181.07,177.56l4.43,13.14c0.02,0.05,0.07,0.09,0.12,0.09l13.86,0.15c0.13,0,0.18,0.16,0.08,0.24l-11.13,8.27
	c-0.04,0.03-0.06,0.09-0.05,0.14l4.14,13.23c0.04,0.12-0.1,0.22-0.2,0.15l-11.3-8.03c-0.05-0.03-0.11-0.03-0.15,0l-11.3,8.03
	c-0.1,0.07-0.24-0.03-0.2-0.15l4.14-13.23c0.02-0.05,0-0.11-0.05-0.14l-11.13-8.27c-0.1-0.07-0.05-0.23,0.08-0.24l13.86-0.15
	c0.06,0,0.1-0.04,0.12-0.09l4.43-13.14C180.86,177.45,181.03,177.45,181.07,177.56z"/>
<path class="st0" d="M137.73,190.87l4.43,13.14c0.02,0.05,0.07,0.09,0.12,0.09l13.86,0.15c0.13,0,0.18,0.16,0.08,0.24l-11.13,8.27
	c-0.04,0.03-0.06,0.09-0.05,0.14l4.14,13.23c0.04,0.12-0.1,0.22-0.2,0.15l-11.3-8.03c-0.05-0.03-0.11-0.03-0.15,0l-11.3,8.03
	c-0.1,0.07-0.24-0.03-0.2-0.15l4.14-13.23c0.02-0.05,0-0.11-0.05-0.14l-11.13-8.27c-0.1-0.07-0.05-0.23,0.08-0.24l13.86-0.15
	c0.06,0,0.1-0.04,0.12-0.09l4.43-13.14C137.52,190.75,137.69,190.75,137.73,190.87z"/>
<path class="st1" d="M179.07,241.14l4.43,13.14c0.02,0.05,0.07,0.09,0.12,0.09l13.86,0.15c0.13,0,0.18,0.16,0.08,0.24l-11.13,8.27
	c-0.04,0.03-0.06,0.09-0.05,0.14l4.14,13.23c0.04,0.12-0.1,0.22-0.2,0.15l-11.3-8.03c-0.05-0.03-0.11-0.03-0.15,0l-11.3,8.03
	c-0.1,0.07-0.24-0.03-0.2-0.15l4.14-13.23c0.02-0.05,0-0.11-0.05-0.14l-11.13-8.27c-0.1-0.07-0.05-0.23,0.08-0.24l13.86-0.15
	c0.06,0,0.1-0.04,0.12-0.09l4.43-13.14C178.86,241.02,179.03,241.02,179.07,241.14z"/>
<path class="st1" d="M183.08,36.26l4.43,13.14c0.02,0.05,0.07,0.09,0.12,0.09l13.86,0.15c0.13,0,0.18,0.16,0.08,0.24l-11.13,8.27
	c-0.04,0.03-0.06,0.09-0.05,0.14l4.14,13.23c0.04,0.12-0.1,0.22-0.2,0.15l-11.3-8.03c-0.05-0.03-0.11-0.03-0.15,0l-11.3,8.03
	c-0.1,0.07-0.24-0.03-0.2-0.15l4.14-13.23c0.02-0.05,0-0.11-0.05-0.14l-11.13-8.27c-0.1-0.07-0.05-0.23,0.08-0.24l13.86-0.15
	c0.06,0,0.1-0.04,0.12-0.09l4.43-13.14C182.87,36.14,183.04,36.14,183.08,36.26z"/>
<path class="st0" d="M235.18,60.73l4.43,13.14c0.02,0.05,0.07,0.09,0.12,0.09l13.86,0.15c0.13,0,0.18,0.16,0.08,0.24l-11.13,8.27
	c-0.04,0.03-0.06,0.09-0.05,0.14l4.14,13.23c0.04,0.12-0.1,0.22-0.2,0.15l-11.3-8.03c-0.05-0.03-0.11-0.03-0.15,0l-11.3,8.03
	c-0.1,0.07-0.24-0.03-0.2-0.15l4.14-13.23c0.02-0.05,0-0.11-0.05-0.14l-11.13-8.27c-0.1-0.07-0.05-0.23,0.08-0.24l13.86-0.15
	c0.06,0,0.1-0.04,0.12-0.09l4.43-13.14C234.97,60.61,235.14,60.61,235.18,60.73z"/>
<path class="st1" d="M276.52,111.01l4.43,13.14c0.02,0.05,0.07,0.09,0.12,0.09l13.86,0.15c0.13,0,0.18,0.16,0.08,0.24l-11.13,8.27
	c-0.04,0.03-0.06,0.09-0.05,0.14l4.14,13.23c0.04,0.12-0.1,0.22-0.2,0.15l-11.3-8.03c-0.05-0.03-0.11-0.03-0.15,0l-11.3,8.03
	c-0.1,0.07-0.24-0.03-0.2-0.15l4.14-13.23c0.02-0.05,0-0.11-0.05-0.14l-11.13-8.27c-0.1-0.07-0.05-0.23,0.08-0.24l13.86-0.15
	c0.06,0,0.1-0.04,0.12-0.09l4.43-13.14C276.31,110.89,276.48,110.89,276.52,111.01z"/>
<path class="st0" d="M233.18,128.76l4.43,13.14c0.02,0.05,0.07,0.09,0.12,0.09l13.86,0.15c0.13,0,0.18,0.16,0.08,0.24l-11.13,8.27
	c-0.04,0.03-0.06,0.09-0.05,0.14l4.14,13.23c0.04,0.12-0.1,0.22-0.2,0.15l-11.3-8.03c-0.05-0.03-0.11-0.03-0.15,0l-11.3,8.03
	c-0.1,0.07-0.24-0.03-0.2-0.15l4.14-13.23c0.02-0.05,0-0.11-0.05-0.14l-11.13-8.27c-0.1-0.07-0.05-0.23,0.08-0.24l13.86-0.15
	c0.06,0,0.1-0.04,0.12-0.09l4.43-13.14C232.97,128.65,233.14,128.65,233.18,128.76z"/>
<path class="st1" d="M274.52,179.04l4.43,13.14c0.02,0.05,0.07,0.09,0.12,0.09l13.86,0.15c0.13,0,0.18,0.16,0.08,0.24l-11.13,8.27
	c-0.04,0.03-0.06,0.09-0.05,0.14l4.14,13.23c0.04,0.12-0.1,0.22-0.2,0.15l-11.3-8.03c-0.05-0.03-0.11-0.03-0.15,0l-11.3,8.03
	c-0.1,0.07-0.24-0.03-0.2-0.15l4.14-13.23c0.02-0.05,0-0.11-0.05-0.14l-11.13-8.27c-0.1-0.07-0.05-0.23,0.08-0.24l13.86-0.15
	c0.06,0,0.1-0.04,0.12-0.09l4.43-13.14C274.31,178.92,274.48,178.92,274.52,179.04z"/>
<path class="st0" d="M231.17,192.34l4.43,13.14c0.02,0.05,0.07,0.09,0.12,0.09l13.86,0.15c0.13,0,0.18,0.16,0.08,0.24l-11.13,8.27
	c-0.04,0.03-0.06,0.09-0.05,0.14l4.14,13.23c0.04,0.12-0.1,0.22-0.2,0.15l-11.3-8.03c-0.05-0.03-0.11-0.03-0.15,0l-11.3,8.03
	c-0.1,0.07-0.24-0.03-0.2-0.15l4.14-13.23c0.02-0.05,0-0.11-0.05-0.14l-11.13-8.27c-0.1-0.07-0.05-0.23,0.08-0.24l13.86-0.15
	c0.06,0,0.1-0.04,0.12-0.09l4.43-13.14C230.96,192.22,231.13,192.22,231.17,192.34z"/>
<path class="st1" d="M272.51,242.61l4.43,13.14c0.02,0.05,0.07,0.09,0.12,0.09l13.86,0.15c0.13,0,0.18,0.16,0.08,0.24l-11.13,8.27
	c-0.04,0.03-0.06,0.09-0.05,0.14l4.14,13.23c0.04,0.12-0.1,0.22-0.2,0.15l-11.3-8.03c-0.05-0.03-0.11-0.03-0.15,0l-11.3,8.03
	c-0.1,0.07-0.24-0.03-0.2-0.15l4.14-13.23c0.02-0.05,0-0.11-0.05-0.14l-11.13-8.27c-0.1-0.07-0.05-0.23,0.08-0.24l13.86-0.15
	c0.06,0,0.1-0.04,0.12-0.09l4.43-13.14C272.3,242.49,272.47,242.49,272.51,242.61z"/>
<path class="st1" d="M276.52,37.73l4.43,13.14c0.02,0.05,0.07,0.09,0.12,0.09l13.86,0.15c0.13,0,0.18,0.16,0.08,0.24l-11.13,8.27
	c-0.04,0.03-0.06,0.09-0.05,0.14l4.14,13.23c0.04,0.12-0.1,0.22-0.2,0.15l-11.3-8.03c-0.05-0.03-0.11-0.03-0.15,0l-11.3,8.03
	c-0.1,0.07-0.24-0.03-0.2-0.15l4.14-13.23c0.02-0.05,0-0.11-0.05-0.14l-11.13-8.27c-0.1-0.07-0.05-0.23,0.08-0.24l13.86-0.15
	c0.06,0,0.1-0.04,0.12-0.09l4.43-13.14C276.31,37.61,276.48,37.61,276.52,37.73z"/>
<path class="st1" d="M555.08,58.59l-4.43,13.14c-0.02,0.05-0.07,0.09-0.12,0.09l-13.86,0.15c-0.13,0-0.18,0.16-0.08,0.24l11.13,8.27
	c0.04,0.03,0.06,0.09,0.05,0.14l-4.14,13.23c-0.04,0.12,0.1,0.22,0.2,0.15l11.3-8.03c0.05-0.03,0.11-0.03,0.15,0l11.3,8.03
	c0.1,0.07,0.24-0.03,0.2-0.15l-4.14-13.23c-0.02-0.05,0-0.11,0.05-0.14l11.13-8.27c0.1-0.07,0.05-0.23-0.08-0.24l-13.86-0.15
	c-0.06,0-0.1-0.04-0.12-0.09l-4.43-13.14C555.29,58.47,555.12,58.47,555.08,58.59z"/>
<path class="st0" d="M513.74,108.86L509.32,122c-0.02,0.05-0.07,0.09-0.12,0.09l-13.86,0.15c-0.13,0-0.18,0.16-0.08,0.24l11.13,8.27
	c0.04,0.03,0.06,0.09,0.05,0.14l-4.14,13.23c-0.04,0.12,0.1,0.22,0.2,0.15l11.3-8.03c0.05-0.03,0.11-0.03,0.15,0l11.3,8.03
	c0.1,0.07,0.24-0.03,0.2-0.15l-4.14-13.23c-0.02-0.05,0-0.11,0.05-0.14l11.13-8.27c0.1-0.07,0.05-0.23-0.08-0.24l-13.86-0.15
	c-0.06,0-0.1-0.04-0.12-0.09l-4.43-13.14C513.95,108.74,513.78,108.74,513.74,108.86z"/>
<path class="st1" d="M557.09,126.62l-4.43,13.14c-0.02,0.05-0.07,0.09-0.12,0.09L538.68,140c-0.13,0-0.18,0.16-0.08,0.24l11.13,8.27
	c0.04,0.03,0.06,0.09,0.05,0.14l-4.14,13.23c-0.04,0.12,0.1,0.22,0.2,0.15l11.3-8.03c0.05-0.03,0.11-0.03,0.15,0l11.3,8.03
	c0.1,0.07,0.24-0.03,0.2-0.15l-4.14-13.23c-0.02-0.05,0-0.11,0.05-0.14l11.13-8.27c0.1-0.07,0.05-0.23-0.08-0.24l-13.86-0.15
	c-0.06,0-0.1-0.04-0.12-0.09l-4.43-13.14C557.3,126.5,557.13,126.5,557.09,126.62z"/>
<path class="st0" d="M515.75,176.89l-4.43,13.14c-0.02,0.05-0.07,0.09-0.12,0.09l-13.86,0.15c-0.13,0-0.18,0.16-0.08,0.24
	l11.13,8.27c0.04,0.03,0.06,0.09,0.05,0.14l-4.14,13.23c-0.04,0.12,0.1,0.22,0.2,0.15l11.3-8.03c0.05-0.03,0.11-0.03,0.15,0
	l11.3,8.03c0.1,0.07,0.24-0.03,0.2-0.15l-4.14-13.23c-0.02-0.05,0-0.11,0.05-0.14l11.13-8.27c0.1-0.07,0.05-0.23-0.08-0.24
	l-13.86-0.15c-0.06,0-0.1-0.04-0.12-0.09L516,176.89C515.96,176.77,515.79,176.77,515.75,176.89z"/>
<path class="st1" d="M559.09,190.19l-4.43,13.14c-0.02,0.05-0.07,0.09-0.12,0.09l-13.86,0.15c-0.13,0-0.18,0.16-0.08,0.24
	l11.13,8.27c0.04,0.03,0.06,0.09,0.05,0.14l-4.14,13.23c-0.04,0.12,0.1,0.22,0.2,0.15l11.3-8.03c0.05-0.03,0.11-0.03,0.15,0
	l11.3,8.03c0.1,0.07,0.24-0.03,0.2-0.15l-4.14-13.23c-0.02-0.05,0-0.11,0.05-0.14l11.13-8.27c0.1-0.07,0.05-0.23-0.08-0.24
	l-13.86-0.15c-0.06,0-0.1-0.04-0.12-0.09l-4.43-13.14C559.3,190.08,559.13,190.08,559.09,190.19z"/>
<path class="st0" d="M517.75,240.47l-4.43,13.14c-0.02,0.05-0.07,0.09-0.12,0.09l-13.86,0.15c-0.13,0-0.18,0.16-0.08,0.24
	l11.13,8.27c0.04,0.03,0.06,0.09,0.05,0.14l-4.14,13.23c-0.04,0.12,0.1,0.22,0.2,0.15l11.3-8.03c0.05-0.03,0.11-0.03,0.15,0
	l11.3,8.03c0.1,0.07,0.24-0.03,0.2-0.15l-4.14-13.23c-0.02-0.05,0-0.11,0.05-0.14l11.13-8.27c0.1-0.07,0.05-0.23-0.08-0.24
	l-13.86-0.15c-0.06,0-0.1-0.04-0.12-0.09L518,240.47C517.96,240.35,517.79,240.35,517.75,240.47z"/>
<path class="st0" d="M513.74,35.59l-4.43,13.14c-0.02,0.05-0.07,0.09-0.12,0.09l-13.86,0.15c-0.13,0-0.18,0.16-0.08,0.24l11.13,8.27
	c0.04,0.03,0.06,0.09,0.05,0.14l-4.14,13.23c-0.04,0.12,0.1,0.22,0.2,0.15l11.3-8.03c0.05-0.03,0.11-0.03,0.15,0l11.3,8.03
	c0.1,0.07,0.24-0.03,0.2-0.15l-4.14-13.23c-0.02-0.05,0-0.11,0.05-0.14l11.13-8.27c0.1-0.07,0.05-0.23-0.08-0.24l-13.86-0.15
	c-0.06,0-0.1-0.04-0.12-0.09l-4.43-13.14C513.95,35.47,513.78,35.47,513.74,35.59z"/>
<path class="st1" d="M463.17,58.59l-4.43,13.14c-0.02,0.05-0.07,0.09-0.12,0.09l-13.86,0.15c-0.13,0-0.18,0.16-0.08,0.24l11.13,8.27
	c0.04,0.03,0.06,0.09,0.05,0.14l-4.14,13.23c-0.04,0.12,0.1,0.22,0.2,0.15l11.3-8.03c0.05-0.03,0.11-0.03,0.15,0l11.3,8.03
	c0.1,0.07,0.24-0.03,0.2-0.15l-4.14-13.23c-0.02-0.05,0-0.11,0.05-0.14l11.13-8.27c0.1-0.07,0.05-0.23-0.08-0.24l-13.86-0.15
	c-0.06,0-0.1-0.04-0.12-0.09l-4.43-13.14C463.38,58.47,463.21,58.47,463.17,58.59z"/>
<path class="st0" d="M421.83,108.86L417.4,122c-0.02,0.05-0.07,0.09-0.12,0.09l-13.86,0.15c-0.13,0-0.18,0.16-0.08,0.24l11.13,8.27
	c0.04,0.03,0.06,0.09,0.05,0.14l-4.14,13.23c-0.04,0.12,0.1,0.22,0.2,0.15l11.3-8.03c0.05-0.03,0.11-0.03,0.15,0l11.3,8.03
	c0.1,0.07,0.24-0.03,0.2-0.15l-4.14-13.23c-0.02-0.05,0-0.11,0.05-0.14l11.13-8.27c0.1-0.07,0.05-0.23-0.08-0.24l-13.86-0.15
	c-0.06,0-0.1-0.04-0.12-0.09l-4.43-13.14C422.04,108.74,421.87,108.74,421.83,108.86z"/>
<path class="st1" d="M465.17,126.62l-4.43,13.14c-0.02,0.05-0.07,0.09-0.12,0.09L446.76,140c-0.13,0-0.18,0.16-0.08,0.24l11.13,8.27
	c0.04,0.03,0.06,0.09,0.05,0.14l-4.14,13.23c-0.04,0.12,0.1,0.22,0.2,0.15l11.3-8.03c0.05-0.03,0.11-0.03,0.15,0l11.3,8.03
	c0.1,0.07,0.24-0.03,0.2-0.15l-4.14-13.23c-0.02-0.05,0-0.11,0.05-0.14l11.13-8.27c0.1-0.07,0.05-0.23-0.08-0.24l-13.86-0.15
	c-0.06,0-0.1-0.04-0.12-0.09l-4.43-13.14C465.38,126.5,465.21,126.5,465.17,126.62z"/>
<path class="st0" d="M423.83,176.89l-4.43,13.14c-0.02,0.05-0.07,0.09-0.12,0.09l-13.86,0.15c-0.13,0-0.18,0.16-0.08,0.24
	l11.13,8.27c0.04,0.03,0.06,0.09,0.05,0.14l-4.14,13.23c-0.04,0.12,0.1,0.22,0.2,0.15l11.3-8.03c0.05-0.03,0.11-0.03,0.15,0
	l11.3,8.03c0.1,0.07,0.24-0.03,0.2-0.15l-4.14-13.23c-0.02-0.05,0-0.11,0.05-0.14l11.13-8.27c0.1-0.07,0.05-0.23-0.08-0.24
	l-13.86-0.15c-0.06,0-0.1-0.04-0.12-0.09l-4.43-13.14C424.04,176.77,423.87,176.77,423.83,176.89z"/>
<path class="st1" d="M467.18,190.19l-4.43,13.14c-0.02,0.05-0.07,0.09-0.12,0.09l-13.86,0.15c-0.13,0-0.18,0.16-0.08,0.24
	l11.13,8.27c0.04,0.03,0.06,0.09,0.05,0.14l-4.14,13.23c-0.04,0.12,0.1,0.22,0.2,0.15l11.3-8.03c0.05-0.03,0.11-0.03,0.15,0
	l11.3,8.03c0.1,0.07,0.24-0.03,0.2-0.15l-4.14-13.23c-0.02-0.05,0-0.11,0.05-0.14l11.13-8.27c0.1-0.07,0.05-0.23-0.08-0.24
	l-13.86-0.15c-0.06,0-0.1-0.04-0.12-0.09l-4.43-13.14C467.39,190.08,467.22,190.08,467.18,190.19z"/>
<path class="st0" d="M425.84,240.47l-4.43,13.14c-0.02,0.05-0.07,0.09-0.12,0.09l-13.86,0.15c-0.13,0-0.18,0.16-0.08,0.24
	l11.13,8.27c0.04,0.03,0.06,0.09,0.05,0.14l-4.14,13.23c-0.04,0.12,0.1,0.22,0.2,0.15l11.3-8.03c0.05-0.03,0.11-0.03,0.15,0
	l11.3,8.03c0.1,0.07,0.24-0.03,0.2-0.15l-4.14-13.23c-0.02-0.05,0-0.11,0.05-0.14l11.13-8.27c0.1-0.07,0.05-0.23-0.08-0.24
	l-13.86-0.15c-0.06,0-0.1-0.04-0.12-0.09l-4.43-13.14C426.05,240.35,425.88,240.35,425.84,240.47z"/>
<path class="st0" d="M421.83,35.59l-4.43,13.14c-0.02,0.05-0.07,0.09-0.12,0.09l-13.86,0.15c-0.13,0-0.18,0.16-0.08,0.24l11.13,8.27
	c0.04,0.03,0.06,0.09,0.05,0.14l-4.14,13.23c-0.04,0.12,0.1,0.22,0.2,0.15l11.3-8.03c0.05-0.03,0.11-0.03,0.15,0l11.3,8.03
	c0.1,0.07,0.24-0.03,0.2-0.15l-4.14-13.23c-0.02-0.05,0-0.11,0.05-0.14l11.13-8.27c0.1-0.07,0.05-0.23-0.08-0.24l-13.86-0.15
	c-0.06,0-0.1-0.04-0.12-0.09l-4.43-13.14C422.04,35.47,421.87,35.47,421.83,35.59z"/>
<path class="st1" d="M369.72,60.06L365.3,73.2c-0.02,0.05-0.07,0.09-0.12,0.09l-13.86,0.15c-0.13,0-0.18,0.16-0.08,0.24l11.13,8.27
	c0.04,0.03,0.06,0.09,0.05,0.14l-4.14,13.23c-0.04,0.12,0.1,0.22,0.2,0.15l11.3-8.03c0.05-0.03,0.11-0.03,0.15,0l11.3,8.03
	c0.1,0.07,0.24-0.03,0.2-0.15l-4.14-13.23c-0.02-0.05,0-0.11,0.05-0.14l11.13-8.27c0.1-0.07,0.05-0.23-0.08-0.24l-13.86-0.15
	c-0.06,0-0.1-0.04-0.12-0.09l-4.43-13.14C369.93,59.94,369.76,59.94,369.72,60.06z"/>
<path class="st0" d="M328.38,110.34l-4.43,13.14c-0.02,0.05-0.07,0.09-0.12,0.09l-13.86,0.15c-0.13,0-0.18,0.16-0.08,0.24
	l11.13,8.27c0.04,0.03,0.06,0.09,0.05,0.14l-4.14,13.23c-0.04,0.12,0.1,0.22,0.2,0.15l11.3-8.03c0.05-0.03,0.11-0.03,0.15,0
	l11.3,8.03c0.1,0.07,0.24-0.03,0.2-0.15l-4.14-13.23c-0.02-0.05,0-0.11,0.05-0.14l11.13-8.27c0.1-0.07,0.05-0.23-0.08-0.24
	l-13.86-0.15c-0.06,0-0.1-0.04-0.12-0.09l-4.43-13.14C328.59,110.22,328.42,110.22,328.38,110.34z"/>
<path class="st1" d="M371.73,128.09l-4.43,13.14c-0.02,0.05-0.07,0.09-0.12,0.09l-13.86,0.15c-0.13,0-0.18,0.16-0.08,0.24
	l11.13,8.27c0.04,0.03,0.06,0.09,0.05,0.14l-4.14,13.23c-0.04,0.12,0.1,0.22,0.2,0.15l11.3-8.03c0.05-0.03,0.11-0.03,0.15,0
	l11.3,8.03c0.1,0.07,0.24-0.03,0.2-0.15l-4.14-13.23c-0.02-0.05,0-0.11,0.05-0.14l11.13-8.27c0.1-0.07,0.05-0.23-0.08-0.24
	l-13.86-0.15c-0.06,0-0.1-0.04-0.12-0.09l-4.43-13.14C371.93,127.97,371.77,127.97,371.73,128.09z"/>
<path class="st0" d="M330.39,178.37l-4.43,13.14c-0.02,0.05-0.07,0.09-0.12,0.09l-13.86,0.15c-0.13,0-0.18,0.16-0.08,0.24
	l11.13,8.27c0.04,0.03,0.06,0.09,0.05,0.14l-4.14,13.23c-0.04,0.12,0.1,0.22,0.2,0.15l11.3-8.03c0.05-0.03,0.11-0.03,0.15,0
	l11.3,8.03c0.1,0.07,0.24-0.03,0.2-0.15l-4.14-13.23c-0.02-0.05,0-0.11,0.05-0.14l11.13-8.27c0.1-0.07,0.05-0.23-0.08-0.24
	l-13.86-0.15c-0.06,0-0.1-0.04-0.12-0.09l-4.43-13.14C330.59,178.25,330.43,178.25,330.39,178.37z"/>
<path class="st1" d="M373.73,191.67l-4.43,13.14c-0.02,0.05-0.07,0.09-0.12,0.09l-13.86,0.15c-0.13,0-0.18,0.16-0.08,0.24
	l11.13,8.27c0.04,0.03,0.06,0.09,0.05,0.14l-4.14,13.23c-0.04,0.12,0.1,0.22,0.2,0.15l11.3-8.03c0.05-0.03,0.11-0.03,0.15,0
	l11.3,8.03c0.1,0.07,0.24-0.03,0.2-0.15l-4.14-13.23c-0.02-0.05,0-0.11,0.05-0.14l11.13-8.27c0.1-0.07,0.05-0.23-0.08-0.24
	l-13.86-0.15c-0.06,0-0.1-0.04-0.12-0.09l-4.43-13.14C373.94,191.55,373.77,191.55,373.73,191.67z"/>
<path class="st0" d="M332.39,241.94l-4.43,13.14c-0.02,0.05-0.07,0.09-0.12,0.09l-13.86,0.15c-0.13,0-0.18,0.16-0.08,0.24
	l11.13,8.27c0.04,0.03,0.06,0.09,0.05,0.14l-4.14,13.23c-0.04,0.12,0.1,0.22,0.2,0.15l11.3-8.03c0.05-0.03,0.11-0.03,0.15,0
	l11.3,8.03c0.1,0.07,0.24-0.03,0.2-0.15l-4.14-13.23c-0.02-0.05,0-0.11,0.05-0.14l11.13-8.27c0.1-0.07,0.05-0.23-0.08-0.24
	l-13.86-0.15c-0.06,0-0.1-0.04-0.12-0.09l-4.43-13.14C332.6,241.82,332.43,241.82,332.39,241.94z"/>
<path class="st0" d="M328.38,37.06l-4.43,13.14c-0.02,0.05-0.07,0.09-0.12,0.09l-13.86,0.15c-0.13,0-0.18,0.16-0.08,0.24l11.13,8.27
	c0.04,0.03,0.06,0.09,0.05,0.14l-4.14,13.23c-0.04,0.12,0.1,0.22,0.2,0.15l11.3-8.03c0.05-0.03,0.11-0.03,0.15,0l11.3,8.03
	c0.1,0.07,0.24-0.03,0.2-0.15l-4.14-13.23c-0.02-0.05,0-0.11,0.05-0.14l11.13-8.27c0.1-0.07,0.05-0.23-0.08-0.24l-13.86-0.15
	c-0.06,0-0.1-0.04-0.12-0.09l-4.43-13.14C328.59,36.94,328.42,36.94,328.38,37.06z"/>
</svg>
